General

Complete name                    : The.Tourist.2010{PSP.IPOD.ZUNE}R5rip.aaaevilacharya.m4v
Format                           : MPEG-4
Format profile                   : Base Media / Version 2
Codec ID                         : mp42
File size                        : 397 MiB
Duration                         : 1h 39mn
Overall bit rate                 : 559 Kbps
Encoded date                     : UTC 2011-01-29 19:23:31


Video
ID                               : 1
Format                           : AVC
Format/Info                      : Advanced Video Codec
Format profile                   : Baseline@L3.0
Format settings, CABAC           : No
Format settings, ReFrames        : 1 frame
Codec ID                         : avc1
Codec ID/Info                    : Advanced Video Coding
Duration                         : 1h 39mn
Bit rate mode                    : Variable
Bit rate                         : 449 Kbps
Width                            : 720 pixels
Height                           : 304 pixels
Display aspect ratio             : 2.35:1
Frame rate mode                  : Constant
Frame rate                       : 25.000 fps
Color space                      : YUV
Chroma subsampling               : 4:2:0
Bit depth                        : 8 bits
Scan type                        : Progressive
Bits/(Pixel*Frame)               : 0.082
Stream size                      : 317 MiB (80%)
Writing library                  : x264 core 79


Audio
ID                               : 2
Format                           : AAC
Format/Info                      : Advanced Audio Codec
Format version                   : Version 4
Format profile                   : LC
Format settings, SBR             : No
Codec ID                         : 40
Duration                         : 1h 39mn
Bit rate mode                    : Variable
Bit rate                         : 110 Kbps
Maximum bit rate                 : 189 Kbps
Channel(s)                       : 2 channels
Channel positions                : Front: L R
Sampling rate                    : 32.0 KHz
Stream size                      : 78.4 MiB (20%)
Encoded date                     : UTC 2011-01-29 19:23:31
Tagged date                      : UTC 2011-01-29 21:37:43


SCREENSHOTS
 
http://img407.imageshack.us/img407/5800/thetourist2010pspipodzu.jpg 
http://img40.imageshack.us/img40/5800/thetourist2010pspipodzu.jpg 
http://img703.imageshack.us/img703/5800/thetourist2010pspipodzu.jpg 
http://img218.imageshack.us/img218/5800/thetourist2010pspipodzu.jpg 
http://img717.imageshack.us/img717/5800/thetourist2010pspipodzu.jpg 
http://img573.imageshack.us/img573/5800/thetourist2010pspipodzu.jpg 
http://img708.imageshack.us/img708/5800/thetourist2010pspipodzu.jpg 
http://img232.imageshack.us/img232/5800/thetourist2010pspipodzu.jpg 
http://img402.imageshack.us/img402/5800/thetourist2010pspipodzu.jpg 
http://img831.imageshack.us/img831/5800/thetourist2010pspipodzu.jpg 
http://img191.imageshack.us/img191/5800/thetourist2010pspipodzu.jpg 
http://img220.imageshack.us/img220/5800/thetourist2010pspipodzu.jpg
